<svg id="Group_149" data-name="Group 149" xmlns="http://www.w3.org/2000/svg" xmlns:xlink="http://www.w3.org/1999/xlink" width="1222.616" height="635.072" viewBox="0 0 1222.616 635.072">
  <defs>
    <clipPath id="clip-path">
      <rect id="Rectangle_180" data-name="Rectangle 180" width="1222.616" height="635.072" fill="none"/>
    </clipPath>
  </defs>
  <g id="Group_148" data-name="Group 148" clip-path="url(#clip-path)">
    <path id="Path_181" data-name="Path 181" d="M860.944,171.072h71.28c57.292,0,93.192-38.808,93.192-85.536S989.516,0,932.224,0h-71.28Zm50.16-42.5V42.508h19.272c25.608,0,41.976,18.48,41.976,43.032,0,24.816-16.368,43.032-41.976,43.032Z" fill="#f1f1f1"/>
    <path id="Path_182" data-name="Path 182" d="M1032.536,171.072h51.216l7.92-22.176h71.808l7.92,22.176h51.216L1153.448,0H1101.7Zm72.6-60.72,20.328-57.816a66.662,66.662,0,0,0,2.112-6.864,45.468,45.468,0,0,0,2.112,6.864l20.328,57.816Z" fill="#f1f1f1"/>
    <path id="Path_183" data-name="Path 183" d="M848.536,403.072h51.216l7.92-22.176H979.48l7.92,22.176h51.216L969.448,232H917.7Zm72.6-60.72,20.328-57.816a66.571,66.571,0,0,0,2.112-6.864,45.483,45.483,0,0,0,2.112,6.864l20.328,57.816Z" fill="#f1f1f1"/>
    <path id="Path_184" data-name="Path 184" d="M660.944,403.072H711.1V315.688a93.8,93.8,0,0,0,7.656,12.936l54.384,74.448H816.7V232h-50.16v88.7a93.767,93.767,0,0,0-7.656-12.928L704.5,232h-43.56Z" fill="#f1f1f1"/>
    <path id="Path_185" data-name="Path 185" d="M660.944,171.072H711.1V83.688a93.8,93.8,0,0,0,7.656,12.936l54.384,74.448H816.7V0h-50.16V88.7a93.768,93.768,0,0,0-7.656-12.928L704.5,0h-43.56Z" fill="#f1f1f1"/>
    <path id="Path_186" data-name="Path 186" d="M72.072,406.24c35.376,0,72.864-15.576,72.864-54.648,0-43.824-47.256-54.12-72.864-59.664C63.1,289.816,56.76,287.176,56.76,281.1c0-6.864,11.088-7.92,15.312-7.92,16.632,0,39.336,5.544,49.368,12.408l16.9-38.808c-17.424-10.3-38.016-17.424-66.264-17.424-35.112,0-67.584,16.1-67.584,51.744,0,38.544,34.584,51.216,67.584,58.608,9.768,2.376,20.592,3.7,20.592,11.88,0,8.976-15.312,10.56-20.592,10.56-27.456,0-42.5-8.184-55.7-15.576L0,385.648c5.28,2.112,24.024,20.592,72.072,20.592" fill="#f1f1f1"/>
    <path id="Path_187" data-name="Path 187" d="M165.928,403.072h51.216l7.92-22.176h71.808l7.92,22.176h51.216L286.84,232H235.1Zm72.6-60.72,20.328-57.816a66.564,66.564,0,0,0,2.112-6.864,45.479,45.479,0,0,0,2.112,6.864l20.328,57.816Z" fill="#f1f1f1"/>
    <path id="Path_188" data-name="Path 188" d="M388.336,403.072H474.4c36.7,0,68.9-13.728,68.9-51.48,0-23.232-13.2-37.224-29.568-42.5,9.24-6.072,15.048-19.272,15.048-29.832,0-37.752-29.3-47.256-57.816-47.256H388.336Zm50.16-42.5V336.28H473.08c9.768,0,17.952,1.848,17.952,12.144s-8.184,12.148-17.952,12.148Zm0-61.776V274.508H466.48c11.616,0,15.312,4.752,15.312,12.672,0,7.128-3.7,11.616-15.312,11.616Z" fill="#f1f1f1"/>
    <path id="Path_189" data-name="Path 189" d="M860.336,635.072h141.24v-42.5H910.5V464h-50.16Z" fill="#f1f1f1"/>
    <path id="Path_190" data-name="Path 190" d="M660.336,635.072H710.5v-64.68h55.2v64.68h50.16V464H765.7v63.888H710.5V464h-50.16Z" fill="#f1f1f1"/>
    <path id="Path_191" data-name="Path 191" d="M388.336,635.072H438.5v-35.9h25.08c52.8,0,79.728-30.36,79.728-67.584S516.376,464,463.84,464h-75.5Zm50.16-78.408V506.5H465.16c14.52,0,25.08,11.088,25.08,25.08s-10.56,25.08-25.344,25.08Z" fill="#f1f1f1"/>
    <path id="Path_192" data-name="Path 192" d="M388.336,171.072h141.24v-42.5H438.5V0h-50.16Z" fill="#f1f1f1"/>
  </g>
</svg>
