<svg xmlns="http://www.w3.org/2000/svg" xmlns:xlink="http://www.w3.org/1999/xlink" width="1222.616" height="649.908" viewBox="0 0 1222.616 649.908">
  <defs>
    <clipPath id="clip-path">
      <rect id="Rectangle_192" data-name="Rectangle 192" width="1222.616" height="649.908" fill="#f1f1f1"/>
    </clipPath>
  </defs>
  <g id="Herologo" transform="translate(-145.691 -76)">
    <g id="Group_161" data-name="Group 161" transform="translate(145.691 76)">
      <g id="Group_160" data-name="Group 160" clip-path="url(#clip-path)">
        <path id="Path_214" data-name="Path 214" d="M858.944,183.267h71.28c57.292,0,93.192-38.808,93.192-85.536s-35.9-85.536-93.192-85.536h-71.28Zm50.16-42.5V54.7h19.272c25.608,0,41.976,18.48,41.976,43.032,0,24.816-16.368,43.032-41.976,43.032Z" fill="#f1f1f1"/>
        <path id="Path_215" data-name="Path 215" d="M1032.536,183.267h51.216l7.92-22.176h71.808l7.92,22.176h51.216L1153.448,12.195H1101.7Zm72.6-60.72,20.328-57.816a66.586,66.586,0,0,0,2.112-6.864,45.468,45.468,0,0,0,2.112,6.864l20.328,57.816Z" fill="#f1f1f1"/>
        <path id="Path_216" data-name="Path 216" d="M848.536,408.267h51.216l7.92-22.176H979.48l7.92,22.176h51.216L969.448,237.2H917.7Zm72.6-60.72,20.328-57.816a66.568,66.568,0,0,0,2.112-6.864,45.481,45.481,0,0,0,2.112,6.864l20.328,57.816Z" fill="#f1f1f1"/>
        <path id="Path_217" data-name="Path 217" d="M660.944,408.267H711.1V320.883a93.8,93.8,0,0,0,7.656,12.936l54.384,74.448H816.7V237.2h-50.16v88.7a93.768,93.768,0,0,0-7.656-12.928L704.5,237.2h-43.56Z" fill="#f1f1f1"/>
        <path id="Path_218" data-name="Path 218" d="M660.944,183.267H711.1V95.883a93.8,93.8,0,0,0,7.656,12.936l54.384,74.448H816.7V12.195h-50.16v88.7a93.768,93.768,0,0,0-7.656-12.928L704.5,12.2h-43.56Z" fill="#f1f1f1"/>
        <path id="Path_219" data-name="Path 219" d="M72.072,411.435c35.376,0,72.864-15.576,72.864-54.648,0-43.824-47.256-54.12-72.864-59.664C63.1,295.011,56.76,292.371,56.76,286.3c0-6.864,11.088-7.92,15.312-7.92,16.632,0,39.336,5.544,49.368,12.408l16.9-38.808c-17.424-10.3-38.016-17.424-66.264-17.424-35.112,0-67.584,16.1-67.584,51.744,0,38.544,34.584,51.216,67.584,58.608,9.768,2.376,20.592,3.7,20.592,11.88,0,8.976-15.312,10.56-20.592,10.56-27.456,0-42.5-8.184-55.7-15.576L0,390.843c5.28,2.112,24.024,20.592,72.072,20.592" fill="#f1f1f1"/>
        <path id="Path_220" data-name="Path 220" d="M165.928,408.267h51.216l7.92-22.176h71.808l7.92,22.176h51.216L286.84,237.2H235.1Zm72.6-60.72,20.328-57.816a66.561,66.561,0,0,0,2.112-6.864,45.478,45.478,0,0,0,2.112,6.864l20.328,57.816Z" fill="#f1f1f1"/>
        <path id="Path_221" data-name="Path 221" d="M388.336,408.267H474.4c36.7,0,68.9-13.728,68.9-51.48,0-23.232-13.2-37.224-29.568-42.5,9.24-6.072,15.048-19.272,15.048-29.832,0-37.752-29.3-47.256-57.816-47.256H388.336Zm50.16-42.5V341.475H473.08c9.768,0,17.952,1.848,17.952,12.144s-8.184,12.148-17.952,12.148Zm0-61.776V279.7H466.48c11.616,0,15.312,4.752,15.312,12.672,0,7.128-3.7,11.616-15.312,11.616Z" fill="#f1f1f1"/>
        <path id="Path_222" data-name="Path 222" d="M660.336,633.267H710.5v-64.68h55.2v64.68h50.16V462.2H765.7v63.888H710.5V462.2h-50.16Z" fill="#f1f1f1"/>
        <path id="Path_223" data-name="Path 223" d="M388.336,633.267H438.5v-35.9h25.08c52.8,0,79.728-30.36,79.728-67.584S516.376,462.2,463.84,462.2h-75.5Zm50.16-78.408V504.7H465.16c14.52,0,25.08,11.088,25.08,25.08s-10.56,25.08-25.344,25.08Z" fill="#f1f1f1"/>
        <path id="Path_224" data-name="Path 224" d="M388.336,182.267H532.808v-42.5H438.5V11.2h-50.16Z" fill="#f1f1f1"/>
        <path id="Path_225" data-name="Path 225" d="M859.336,633.267h144.472v-42.5H909.5V462.2h-50.16Z" fill="#f1f1f1"/>
        <path id="Path_226" data-name="Path 226" d="M858.944,183.267h71.28c57.292,0,93.192-38.808,93.192-85.536s-35.9-85.536-93.192-85.536h-71.28Zm50.16-42.5V54.7h19.272c25.608,0,41.976,18.48,41.976,43.032,0,24.816-16.368,43.032-41.976,43.032Z" fill="#f1f1f1"/>
        <path id="Path_227" data-name="Path 227" d="M1032.536,183.267h51.216l7.92-22.176h71.808l7.92,22.176h51.216L1153.448,12.195H1101.7Zm72.6-60.72,20.328-57.816a66.586,66.586,0,0,0,2.112-6.864,45.468,45.468,0,0,0,2.112,6.864l20.328,57.816Z" fill="#f1f1f1"/>
        <path id="Path_228" data-name="Path 228" d="M848.536,408.267h51.216l7.92-22.176H979.48l7.92,22.176h51.216L969.448,237.2H917.7Zm72.6-60.72,20.328-57.816a66.568,66.568,0,0,0,2.112-6.864,45.481,45.481,0,0,0,2.112,6.864l20.328,57.816Z" fill="#f1f1f1"/>
        <path id="Path_229" data-name="Path 229" d="M660.944,408.267H711.1V320.883a93.8,93.8,0,0,0,7.656,12.936l54.384,74.448H816.7V237.2h-50.16v88.7a93.768,93.768,0,0,0-7.656-12.928L704.5,237.2h-43.56Z" fill="#f1f1f1"/>
        <path id="Path_230" data-name="Path 230" d="M660.944,183.267H711.1V95.883a93.8,93.8,0,0,0,7.656,12.936l54.384,74.448H816.7V12.195h-50.16v88.7a93.768,93.768,0,0,0-7.656-12.928L704.5,12.2h-43.56Z" fill="#f1f1f1"/>
        <path id="Path_231" data-name="Path 231" d="M72.072,411.435c35.376,0,72.864-15.576,72.864-54.648,0-43.824-47.256-54.12-72.864-59.664C63.1,295.011,56.76,292.371,56.76,286.3c0-6.864,11.088-7.92,15.312-7.92,16.632,0,39.336,5.544,49.368,12.408l16.9-38.808c-17.424-10.3-38.016-17.424-66.264-17.424-35.112,0-67.584,16.1-67.584,51.744,0,38.544,34.584,51.216,67.584,58.608,9.768,2.376,20.592,3.7,20.592,11.88,0,8.976-15.312,10.56-20.592,10.56-27.456,0-42.5-8.184-55.7-15.576L0,390.843c5.28,2.112,24.024,20.592,72.072,20.592" fill="#f1f1f1"/>
        <path id="Path_232" data-name="Path 232" d="M165.928,408.267h51.216l7.92-22.176h71.808l7.92,22.176h51.216L286.84,237.2H235.1Zm72.6-60.72,20.328-57.816a66.561,66.561,0,0,0,2.112-6.864,45.478,45.478,0,0,0,2.112,6.864l20.328,57.816Z" fill="#f1f1f1"/>
        <path id="Path_233" data-name="Path 233" d="M388.336,408.267H474.4c36.7,0,68.9-13.728,68.9-51.48,0-23.232-13.2-37.224-29.568-42.5,9.24-6.072,15.048-19.272,15.048-29.832,0-37.752-29.3-47.256-57.816-47.256H388.336Zm50.16-42.5V341.475H473.08c9.768,0,17.952,1.848,17.952,12.144s-8.184,12.148-17.952,12.148Zm0-61.776V279.7H466.48c11.616,0,15.312,4.752,15.312,12.672,0,7.128-3.7,11.616-15.312,11.616Z" fill="#f1f1f1"/>
        <path id="Path_234" data-name="Path 234" d="M660.336,633.267H710.5v-64.68h55.2v64.68h50.16V462.2H765.7v63.888H710.5V462.2h-50.16Z" fill="#f1f1f1"/>
        <path id="Path_235" data-name="Path 235" d="M388.336,633.267H438.5v-35.9h25.08c52.8,0,79.728-30.36,79.728-67.584S516.376,462.2,463.84,462.2h-75.5Zm50.16-78.408V504.7H465.16c14.52,0,25.08,11.088,25.08,25.08s-10.56,25.08-25.344,25.08Z" fill="#f1f1f1"/>
        <path id="Path_236" data-name="Path 236" d="M388.336,182.267H532.808v-42.5H438.5V11.2h-50.16Z" fill="#f1f1f1"/>
        <path id="Path_237" data-name="Path 237" d="M859.336,633.267h144.472v-42.5H909.5V462.2h-50.16Z" fill="#f1f1f1"/>
        <path id="Path_238" data-name="Path 238" d="M565.227,642.16v-6.219l16.729-4.6c1.752-.482,3.941-1.007,4.16-1.051-.219-.044-2.321-.482-4.16-.964l-16.729-4.247V618.73l16.729-4.2c1.795-.437,3.941-.876,4.16-.92-.219-.087-2.365-.569-4.16-1.094l-16.729-4.73V601.7l28.422,8.452v6.482l-16.116,4.335c-1.971.525-4.642.876-4.949.964.307.086,2.978.437,4.949.962l16.116,4.336v6.526Z" fill="#f1f1f1"/>
        <path id="Path_239" data-name="Path 239" d="M565.227,598.456v-22.2h5.255v16.072h5.781v-15.24h5.212v15.24h6.875V575.64H593.6v22.816Z" fill="#f1f1f1"/>
        <path id="Path_240" data-name="Path 240" d="M565.227,571.831v-13.4c0-4.686,1.971-8.847,7.4-8.847a6.138,6.138,0,0,1,5.036,2.8A7.122,7.122,0,0,1,584.846,547c6,0,8.759,4.73,8.759,10.991v13.839Zm10.861-12.963c0-2.145-1.051-3.2-2.759-3.2s-2.847,1.051-2.847,3.328v6.7h5.606Zm12.262-.569c0-2.934-1.051-4.9-3.591-4.9-2.584,0-3.722,1.839-3.722,4.554V565.7h7.313Z" fill="#f1f1f1"/>
        <path id="Path_241" data-name="Path 241" d="M565.227,532.725V521.339c0-9.328,6.438-15.2,14.189-15.2s14.189,5.868,14.189,15.2v11.386ZM588.35,521.6a8.934,8.934,0,1,0-17.868,0v4.992H588.35Z" fill="#f1f1f1"/>
        <path id="Path_242" data-name="Path 242" d="M565.227,501.546v-22.2h5.255v16.072h5.781v-15.24h5.212v15.24h6.875V478.73H593.6v22.816Z" fill="#f1f1f1"/>
        <path id="Path_243" data-name="Path 243" d="M590.233,476.015l-4.729-2.233a14.715,14.715,0,0,0,3.109-9.329c0-2.364-1.095-5.254-3.329-5.254-2.189,0-2.759,2.54-3.372,5.036-1.226,5.3-3.021,10.773-8.933,10.773-5.475,0-8.189-5.124-8.189-10.555a17.961,17.961,0,0,1,3.021-10.378l4.73,2.233a15.208,15.208,0,0,0-2.277,8.145c0,1.49.569,4.292,2.715,4.292,1.839,0,2.5-2.058,3.153-4.861,1.182-5.036,3.065-11.079,9.152-11.079,6.132,0,8.8,5.956,8.8,11.648,0,6.789-2.584,9.986-3.854,11.562" fill="#f1f1f1"/>
        <rect id="Rectangle_190" data-name="Rectangle 190" width="28.378" height="6.131" transform="translate(565.227 441.945)" fill="#f1f1f1"/>
        <path id="Path_244" data-name="Path 244" d="M579.416,437.3c-8.1,0-14.626-6.218-14.626-14.977a15.3,15.3,0,0,1,3.634-10.072l4.16,3.81a8.622,8.622,0,0,0-2.233,6.131,8.79,8.79,0,0,0,9.065,8.714c5.08,0,9.109-3.678,9.109-8.714a8.978,8.978,0,0,0-2.846-6.525h-4.161v4.817h-4.467V410.065h11.036a14.547,14.547,0,0,1,6,12.217c0,8.759-6.525,15.021-14.671,15.021" fill="#f1f1f1"/>
        <path id="Path_245" data-name="Path 245" d="M565.227,404.591v-5.868l13.488-9.766c2.146-1.577,5.212-3.372,5.212-3.372h-18.7v-6.131H593.6v5.912l-12.963,9.459c-2.54,1.883-5.561,3.635-5.561,3.635H593.6v6.131Z" fill="#f1f1f1"/>
        <path id="Path_246" data-name="Path 246" d="M585.241,365.484a8.99,8.99,0,0,1-7.664-4.467,9.822,9.822,0,0,1-5.211,1.708c-3.81,0-7.576-2.889-7.576-8.32,0-2.8,1.051-6.175,5.649-8.276l3.022,4.467c-2.278.832-3.592,2.276-3.592,3.765a2.427,2.427,0,0,0,2.5,2.54c1.62,0,3.372-1.007,6.043-3.722l5.431-5.518a5.162,5.162,0,0,0-2.8-.657v-5.255a12.955,12.955,0,0,1,6.569,1.752l2.89-2.978,3.679,3.591-2.8,2.978a14.2,14.2,0,0,1,2.671,8.364c0,5.168-2.759,10.028-8.8,10.028m2.54-14.407-6.569,6.832a4.143,4.143,0,0,0,3.46,1.97c2.408,0,4.247-2.014,4.247-4.948a7.347,7.347,0,0,0-1.138-3.854" fill="#f1f1f1"/>
        <path id="Path_247" data-name="Path 247" d="M565.227,327.563V316.176c0-9.327,6.438-15.2,14.189-15.2s14.189,5.868,14.189,15.2v11.387Zm23.123-11.124a8.934,8.934,0,1,0-17.868,0v4.993H588.35Z" fill="#f1f1f1"/>
        <path id="Path_248" data-name="Path 248" d="M565.227,296.382v-22.2h5.255v16.072h5.781v-15.24h5.212v15.24h6.875V273.566H593.6v22.816Z" fill="#f1f1f1"/>
        <path id="Path_249" data-name="Path 249" d="M565.227,272.122V265.86l16.6-6.219c1.62-.613,4.773-1.664,4.992-1.708-.219-.087-3.372-1.1-4.992-1.707l-16.6-6.307V243.7l28.422,11.035v6.35Z" fill="#f1f1f1"/>
        <path id="Path_250" data-name="Path 250" d="M565.227,240.46v-22.2h5.255v16.072h5.781v-15.24h5.212v15.24h6.875V217.644H593.6V240.46Z" fill="#f1f1f1"/>
        <path id="Path_251" data-name="Path 251" d="M565.227,213.835V207.7H588.35V191.282H593.6v22.553Z" fill="#f1f1f1"/>
        <path id="Path_252" data-name="Path 252" d="M579.416,188.743c-8.1,0-14.626-6.263-14.626-15.021s6.524-15.021,14.626-15.021c8.146,0,14.671,6.263,14.671,15.021s-6.525,15.021-14.671,15.021m0-23.648c-5.036,0-9.065,3.635-9.065,8.583a8.755,8.755,0,0,0,9.065,8.671c5.08,0,9.109-3.678,9.109-8.671,0-4.948-4.029-8.583-9.109-8.583" fill="#f1f1f1"/>
        <path id="Path_253" data-name="Path 253" d="M565.227,154.1V141.929c0-8.321,4.906-12.7,10.948-12.7s10.948,4.379,10.948,12.744v6H593.6V154.1Zm16.642-12.437a5.7,5.7,0,1,0-11.387-.044v6.35h11.387Z" fill="#f1f1f1"/>
        <path id="Path_254" data-name="Path 254" d="M565.227,124.807v-5.3l6.307-4.467c2.32-1.664,7.357-5.124,7.357-5.124s-4.993-3.5-7.314-5.123l-6.35-4.467v-5.3H593.6v6.131H575.65s1.795,1.1,3.941,2.584l8.8,6.174-8.847,6.219c-2.058,1.445-3.9,2.54-3.9,2.54H593.6v6.131Z" fill="#f1f1f1"/>
        <path id="Path_255" data-name="Path 255" d="M565.227,89.423V67.22h5.255V83.292h5.781V68.052h5.212v15.24h6.875V66.607H593.6V89.423Z" fill="#f1f1f1"/>
        <path id="Path_256" data-name="Path 256" d="M565.227,62.8V56.93l13.488-9.766c2.146-1.576,5.212-3.372,5.212-3.372h-18.7V37.661H593.6v5.912l-12.963,9.459c-2.54,1.883-5.561,3.635-5.561,3.635H593.6V62.8Z" fill="#f1f1f1"/>
        <path id="Path_257" data-name="Path 257" d="M570.482,24.3v9.635h-5.255V8.539h5.255v9.634h23.123V24.3Z" fill="#f1f1f1"/>
        <path id="Path_258" data-name="Path 258" d="M590.627,6.963a3.411,3.411,0,0,1-3.459-3.46,3.438,3.438,0,1,1,6.875,0,3.4,3.4,0,0,1-3.416,3.46" fill="#f8cb72"/>
        <path id="Path_259" data-name="Path 259" d="M630,7.78V14L613.27,18.6c-1.751.482-3.941,1.007-4.16,1.051.219.044,2.321.482,4.16.964L630,24.86v6.35l-16.729,4.2c-1.794.437-3.941.876-4.16.92.219.087,2.366.569,4.16,1.094L630,42.158v6.087l-28.421-8.452V33.311l16.115-4.335c1.971-.525,4.642-.876,4.949-.964-.307-.086-2.978-.437-4.949-.962l-16.115-4.336V16.188Z" fill="#f1f1f1"/>
        <path id="Path_260" data-name="Path 260" d="M630,51.483v22.2h-5.255V57.614h-5.78v15.24h-5.212V57.614h-6.875V74.3h-5.255V51.483Z" fill="#f1f1f1"/>
        <path id="Path_261" data-name="Path 261" d="M630,78.106v13.4c0,4.686-1.97,8.847-7.4,8.847a6.138,6.138,0,0,1-5.037-2.8,7.12,7.12,0,0,1-7.182,5.386c-6,0-8.758-4.729-8.758-10.991V78.106ZM606.877,91.638c0,2.934,1.051,4.9,3.591,4.9,2.584,0,3.723-1.839,3.723-4.555V84.237h-7.314Zm12.262-.569c0,2.146,1.051,3.2,2.759,3.2s2.846-1.05,2.846-3.328v-6.7h-5.605Z" fill="#f1f1f1"/>
        <path id="Path_262" data-name="Path 262" d="M630,117.21V128.6c0,9.328-6.437,15.2-14.188,15.2s-14.189-5.868-14.189-15.2V117.21Zm-23.122,11.123a8.934,8.934,0,1,0,17.867,0v-4.992H606.877Z" fill="#f1f1f1"/>
        <path id="Path_263" data-name="Path 263" d="M630,148.388v22.2h-5.255V154.519h-5.78v15.24h-5.212v-15.24h-6.875V171.2h-5.255V148.388Z" fill="#f1f1f1"/>
        <path id="Path_264" data-name="Path 264" d="M604.994,173.917l4.73,2.233a14.715,14.715,0,0,0-3.11,9.329c0,2.364,1.095,5.254,3.329,5.254,2.189,0,2.759-2.54,3.372-5.036,1.225-5.3,3.021-10.773,8.933-10.773,5.474,0,8.189,5.124,8.189,10.555a17.954,17.954,0,0,1-3.022,10.378l-4.728-2.233a15.216,15.216,0,0,0,2.276-8.145c0-1.49-.569-4.292-2.715-4.292-1.838,0-2.5,2.058-3.153,4.861-1.182,5.036-3.065,11.079-9.152,11.079-6.132,0-8.8-5.956-8.8-11.648,0-6.789,2.584-9.986,3.854-11.562" fill="#f1f1f1"/>
        <rect id="Rectangle_191" data-name="Rectangle 191" width="28.377" height="6.131" transform="translate(601.622 201.854)" fill="#f1f1f1"/>
        <path id="Path_265" data-name="Path 265" d="M615.811,212.627c8.1,0,14.626,6.218,14.626,14.977a15.288,15.288,0,0,1-3.635,10.072l-4.16-3.81a8.619,8.619,0,0,0,2.234-6.131,8.79,8.79,0,0,0-9.065-8.714c-5.08,0-9.109,3.678-9.109,8.714a8.978,8.978,0,0,0,2.846,6.525h4.16v-4.817h4.467v10.422H607.14a14.547,14.547,0,0,1-6-12.217c0-8.759,6.525-15.021,14.671-15.021" fill="#f1f1f1"/>
        <path id="Path_266" data-name="Path 266" d="M630,245.338v5.868l-13.488,9.766c-2.146,1.577-5.211,3.372-5.211,3.372H630v6.131H601.622v-5.912l12.962-9.459c2.54-1.883,5.561-3.635,5.561-3.635H601.622v-6.131Z" fill="#f1f1f1"/>
        <path id="Path_267" data-name="Path 267" d="M609.986,284.442a8.989,8.989,0,0,1,7.664,4.467,9.822,9.822,0,0,1,5.211-1.708c3.811,0,7.576,2.889,7.576,8.32,0,2.8-1.051,6.175-5.648,8.276l-3.022-4.467c2.278-.832,3.591-2.276,3.591-3.765a2.427,2.427,0,0,0-2.5-2.54c-1.619,0-3.371,1.007-6.043,3.722l-5.43,5.518a5.162,5.162,0,0,0,2.8.657v5.255a12.952,12.952,0,0,1-6.569-1.752l-2.89,2.978-3.679-3.591,2.8-2.978a14.2,14.2,0,0,1-2.672-8.364c0-5.168,2.759-10.028,8.8-10.028m-2.539,14.407,6.568-6.831a4.14,4.14,0,0,0-3.459-1.971c-2.409,0-4.248,2.014-4.248,4.948a7.348,7.348,0,0,0,1.139,3.854" fill="#f1f1f1"/>
        <path id="Path_268" data-name="Path 268" d="M630,322.362v11.387c0,9.327-6.437,15.2-14.188,15.2s-14.189-5.868-14.189-15.2V322.362Zm-23.122,11.123a8.934,8.934,0,1,0,17.867,0v-4.992H606.877Z" fill="#f1f1f1"/>
        <path id="Path_269" data-name="Path 269" d="M630,353.541v22.2h-5.255V359.672h-5.78v15.24h-5.212v-15.24h-6.875v16.684h-5.255V353.541Z" fill="#f1f1f1"/>
        <path id="Path_270" data-name="Path 270" d="M630,377.8v6.262l-16.6,6.218c-1.62.614-4.773,1.665-4.992,1.709.219.087,3.372,1.094,4.992,1.707L630,400v6.219l-28.421-11.036v-6.351Z" fill="#f1f1f1"/>
        <path id="Path_271" data-name="Path 271" d="M630,409.46v22.2h-5.255V415.591h-5.78V430.83h-5.212V415.591h-6.875v16.684h-5.255V409.46Z" fill="#f1f1f1"/>
        <path id="Path_272" data-name="Path 272" d="M630,436.083v6.131H606.877v16.423h-5.255V436.083Z" fill="#f1f1f1"/>
        <path id="Path_273" data-name="Path 273" d="M615.811,461.175c8.1,0,14.626,6.261,14.626,15.02s-6.524,15.021-14.626,15.021c-8.146,0-14.671-6.262-14.671-15.021s6.525-15.02,14.671-15.02m0,23.647c5.036,0,9.065-3.635,9.065-8.583a8.755,8.755,0,0,0-9.065-8.671c-5.08,0-9.109,3.679-9.109,8.671,0,4.948,4.029,8.583,9.109,8.583" fill="#f1f1f1"/>
        <path id="Path_274" data-name="Path 274" d="M630,495.811v12.175c0,8.322-4.905,12.7-10.948,12.7S608.1,516.308,608.1,507.942v-6h-6.481v-6.131Zm-16.641,12.438a5.7,5.7,0,1,0,11.386.044v-6.351H613.359Z" fill="#f1f1f1"/>
        <path id="Path_275" data-name="Path 275" d="M630,525.107v5.3l-6.306,4.467c-2.321,1.664-7.357,5.124-7.357,5.124s4.992,3.5,7.313,5.123l6.35,4.466v5.3H601.622v-6.132h17.955s-1.8-1.093-3.941-2.583l-8.8-6.174,8.846-6.219c2.058-1.445,3.9-2.54,3.9-2.54H601.622v-6.131Z" fill="#f1f1f1"/>
        <path id="Path_276" data-name="Path 276" d="M630,560.489v22.2h-5.255V566.62h-5.78v15.24h-5.212V566.62h-6.875v16.685h-5.255V560.489Z" fill="#f1f1f1"/>
        <path id="Path_277" data-name="Path 277" d="M630,587.113v5.868l-13.488,9.766c-2.146,1.576-5.211,3.372-5.211,3.372H630v6.132H601.622v-5.912l12.962-9.46c2.54-1.883,5.561-3.635,5.561-3.635H601.622v-6.131Z" fill="#f1f1f1"/>
        <path id="Path_278" data-name="Path 278" d="M624.745,625.6v-9.635H630v25.4h-5.255v-9.635H601.621V625.6Z" fill="#f1f1f1"/>
        <path id="Path_279" data-name="Path 279" d="M604.6,642.944a3.483,3.483,0,1,1-3.416,3.461,3.413,3.413,0,0,1,3.416-3.461" fill="#f8cb72"/>
      </g>
    </g>
  </g>
</svg>
