<svg xmlns="http://www.w3.org/2000/svg" width="13" height="25" viewBox="0 0 13 25">
  <g id="arrow_right" data-name="arrow right" transform="translate(-22 -14)">
    <path id="Line_63" data-name="Line 63" d="M12,12.5a.5.5,0,0,1-.354-.146l-12-12a.5.5,0,0,1,0-.707.5.5,0,0,1,.707,0l12,12A.5.5,0,0,1,12,12.5Z" transform="translate(22.5 14.5)" fill="#171717"/>
    <path id="Line_64" data-name="Line 64" d="M0,12.5a.5.5,0,0,1-.354-.146.5.5,0,0,1,0-.707l12-12a.5.5,0,0,1,.707,0,.5.5,0,0,1,0,.707l-12,12A.5.5,0,0,1,0,12.5Z" transform="translate(22.5 26.5)" fill="#171717"/>
  </g>
</svg>
