<svg id="dribbble-brands" xmlns="http://www.w3.org/2000/svg" width="42.6" height="42.6" viewBox="0 0 42.6 42.6">
  <path id="dribbble-brands-2" data-name="dribbble-brands" d="M29.3,8A21.3,21.3,0,1,0,50.6,29.3,21.329,21.329,0,0,0,29.3,8Zm14.008,9.825a18.06,18.06,0,0,1,4.108,11.26A42.523,42.523,0,0,0,34.748,28.5c-.494-1.206-.96-2.267-1.6-3.574,6.727-2.747,9.774-6.655,10.16-7.173Zm-1.95-2.107c-.327.466-3.066,4.147-9.533,6.572a96.564,96.564,0,0,0-6.789-10.65A18.208,18.208,0,0,1,41.364,15.72Zm-19.8-2.856a116.2,116.2,0,0,1,6.746,10.521A67.915,67.915,0,0,1,11.49,25.6,18.269,18.269,0,0,1,21.562,12.863ZM11.107,29.326c0-.186,0-.371.009-.556a67.106,67.106,0,0,0,18.7-2.589c.521,1.019,1.019,2.054,1.475,3.088-6.579,1.853-12.557,7.174-15.5,12.222A18.106,18.106,0,0,1,11.107,29.326Zm7.026,14.352c1.9-3.885,7.058-8.9,14.395-11.406a75.779,75.779,0,0,1,3.881,13.793,18.164,18.164,0,0,1-18.277-2.395Zm21.334.729a78.481,78.481,0,0,0-3.534-12.969,26.665,26.665,0,0,1,11.329.778,17.911,17.911,0,0,1-7.8,12.119Z" transform="translate(-8 -8)" fill="#171717"/>
</svg>
