<svg xmlns="http://www.w3.org/2000/svg" width="42.596" height="42.586" viewBox="0 0 42.596 42.586">
  <path id="instagram-brands" d="M21.228,42.2A10.919,10.919,0,1,0,32.146,53.118,10.9,10.9,0,0,0,21.228,42.2Zm0,18.017a7.1,7.1,0,1,1,7.1-7.1,7.111,7.111,0,0,1-7.1,7.1ZM35.14,41.753a2.547,2.547,0,1,1-2.547-2.547A2.541,2.541,0,0,1,35.14,41.753Zm7.232,2.585c-.162-3.411-.941-6.433-3.44-8.923s-5.512-3.269-8.923-3.44c-3.516-.2-14.054-.2-17.57,0-3.4.162-6.424.941-8.923,3.43S.246,40.917.075,44.328c-.2,3.516-.2,14.054,0,17.57.162,3.411.941,6.433,3.44,8.923s5.512,3.269,8.923,3.44c3.516.2,14.054.2,17.57,0,3.411-.162,6.433-.941,8.923-3.44S42.2,65.31,42.371,61.9C42.571,58.383,42.571,47.854,42.371,44.338ZM37.829,65.671a7.187,7.187,0,0,1-4.048,4.048c-2.8,1.112-9.455.855-12.553.855s-9.759.247-12.553-.855a7.187,7.187,0,0,1-4.048-4.048c-1.112-2.8-.855-9.455-.855-12.553s-.247-9.759.855-12.553a7.187,7.187,0,0,1,4.048-4.048c2.8-1.112,9.455-.855,12.553-.855s9.759-.247,12.553.855a7.187,7.187,0,0,1,4.048,4.048c1.112,2.8.855,9.455.855,12.553S38.941,62.877,37.829,65.671Z" transform="translate(0.075 -31.825)" fill="#171717"/>
</svg>
