<svg xmlns="http://www.w3.org/2000/svg" width="42.596" height="34.517" viewBox="0 0 42.596 34.517">
  <path id="twitter-brands" d="M38.24,57.572c.027.378.027.757.027,1.136,0,11.538-8.785,24.84-24.84,24.84a24.645,24.645,0,0,1-13.4-3.919,18.06,18.06,0,0,0,2.108.108,17.5,17.5,0,0,0,10.84-3.729,8.745,8.745,0,0,1-8.162-6.054,11,11,0,0,0,1.649.135,9.229,9.229,0,0,0,2.3-.3,8.711,8.711,0,0,1-7-8.494V61.19A8.792,8.792,0,0,0,5.7,62.3,8.743,8.743,0,0,1,3,50.623a24.8,24.8,0,0,0,18,9.134,9.856,9.856,0,0,1-.216-2,8.736,8.736,0,0,1,15.1-5.97,17.181,17.181,0,0,0,5.54-2.108,8.709,8.709,0,0,1-3.838,4.811,17.513,17.513,0,0,0,5.027-1.351,18.75,18.75,0,0,1-4.378,4.513Z" transform="translate(-0.025 -49.031)" fill="#171717"/>
</svg>
